<?xml version="1.0" encoding="UTF-8" standalone="no"?>
<!DOCTYPE svg PUBLIC "-//W3C//DTD SVG 1.1//EN"
 "http://www.w3.org/Graphics/SVG/1.1/DTD/svg11.dtd">
<!-- Generated by graphviz version 2.26.3 (20100126.1600)
 -->
<!-- Title: HomeLoadTV\download Pages: 1 -->
<svg width="282pt" height="70pt"
 viewBox="0.00 0.00 282.00 70.00" xmlns="http://www.w3.org/2000/svg" xmlns:xlink="http://www.w3.org/1999/xlink">
<g id="graph1" class="graph" transform="scale(1 1) rotate(0) translate(4 66)">
<title>HomeLoadTV\download</title>
<!-- Node1 -->
<g id="node1" class="node"><title>Node1</title>
<polygon fill="#bfbfbf" stroke="black" points="0.5,-20.5 0.5,-41.5 121.5,-41.5 121.5,-20.5 0.5,-20.5"/>
<text text-anchor="middle" x="61" y="-28.5" font-family="Helvetica,sans-Serif" font-size="10.00">HomeLoadTV\download</text>
</g>
<!-- Node2 -->
<g id="node3" class="node"><title>Node2</title>
<a xlink:href="a00002.xhtml#a568d46c9f41fd833874aacacf2d26e57" target="_top" xlink:title="HomeLoadTV\\getLinks">
<polygon fill="none" stroke="black" points="158,-40.5 158,-61.5 274,-61.5 274,-40.5 158,-40.5"/>
<text text-anchor="middle" x="216" y="-48.5" font-family="Helvetica,sans-Serif" font-size="10.00">HomeLoadTV\getLinks</text>
</a>
</g>
<!-- Node1&#45;&gt;Node2 -->
<g id="edge2" class="edge"><title>Node1&#45;&gt;Node2</title>
<path fill="none" stroke="midnightblue" d="M121.815,-38.8471C130.35,-39.9483 139.167,-41.0861 147.827,-42.2035"/>
<polygon fill="midnightblue" stroke="midnightblue" points="147.529,-45.6939 157.894,-43.5025 148.425,-38.7515 147.529,-45.6939"/>
</g>
<!-- Node3 -->
<g id="node5" class="node"><title>Node3</title>
<a xlink:href="a00002.xhtml#a036df968051a20fee7f3f633f2ff1c97" target="_top" xlink:title="HomeLoadTV\\setState">
<polygon fill="none" stroke="black" points="158,-0.5 158,-21.5 274,-21.5 274,-0.5 158,-0.5"/>
<text text-anchor="middle" x="216" y="-8.5" font-family="Helvetica,sans-Serif" font-size="10.00">HomeLoadTV\setState</text>
</a>
</g>
<!-- Node1&#45;&gt;Node3 -->
<g id="edge4" class="edge"><title>Node1&#45;&gt;Node3</title>
<path fill="none" stroke="midnightblue" d="M121.815,-23.1529C130.35,-22.0517 139.167,-20.9139 147.827,-19.7965"/>
<polygon fill="midnightblue" stroke="midnightblue" points="148.425,-23.2485 157.894,-18.4975 147.529,-16.3061 148.425,-23.2485"/>
</g>
</g>
</svg>
