<?xml version="1.0" encoding="UTF-8" standalone="no"?>
<!DOCTYPE svg PUBLIC "-//W3C//DTD SVG 1.1//EN"
 "http://www.w3.org/Graphics/SVG/1.1/DTD/svg11.dtd">
<!-- Generated by graphviz version 2.26.3 (20100126.1600)
 -->
<!-- Title: HomeLoadTvApi Pages: 1 -->
<svg width="116pt" height="226pt"
 viewBox="0.00 0.00 116.00 226.00" xmlns="http://www.w3.org/2000/svg" xmlns:xlink="http://www.w3.org/1999/xlink">
<g id="graph1" class="graph" transform="scale(1 1) rotate(0) translate(4 222)">
<title>HomeLoadTvApi</title>
<!-- Node1 -->
<g id="node1" class="node"><title>Node1</title>
<polygon fill="#bfbfbf" stroke="black" points="-0.5,-1 -0.5,-103 88.5,-103 88.5,-1 -0.5,-1"/>
<text text-anchor="middle" x="44" y="-90" font-family="Helvetica,sans-Serif" font-size="10.00">HomeLoadTvApi</text>
<polyline fill="none" stroke="black" points="-0.5,-82 88.5,-82 "/>
<text text-anchor="start" x="7.5" y="-69" font-family="Helvetica,sans-Serif" font-size="10.00">&#45; $email</text>
<text text-anchor="start" x="7.5" y="-56" font-family="Helvetica,sans-Serif" font-size="10.00">&#45; $password</text>
<polyline fill="none" stroke="black" points="-0.5,-48 88.5,-48 "/>
<text text-anchor="start" x="7.5" y="-35" font-family="Helvetica,sans-Serif" font-size="10.00">+ __construct()</text>
<text text-anchor="start" x="7.5" y="-22" font-family="Helvetica,sans-Serif" font-size="10.00">+ getLinks()</text>
<text text-anchor="start" x="7.5" y="-9" font-family="Helvetica,sans-Serif" font-size="10.00">+ setState()</text>
</g>
<!-- Node2 -->
<g id="node2" class="node"><title>Node2</title>
<polygon fill="none" stroke="#bfbfbf" points="23.5,-154.5 23.5,-217.5 64.5,-217.5 64.5,-154.5 23.5,-154.5"/>
<text text-anchor="middle" x="44" y="-204.5" font-family="Helvetica,sans-Serif" font-size="10.00">static</text>
<polyline fill="none" stroke="#bfbfbf" points="23.5,-196.5 64.5,-196.5 "/>
<text text-anchor="middle" x="44" y="-183.5" font-family="Helvetica,sans-Serif" font-size="10.00"> </text>
<polyline fill="none" stroke="#bfbfbf" points="23.5,-175.5 64.5,-175.5 "/>
<text text-anchor="middle" x="44" y="-162.5" font-family="Helvetica,sans-Serif" font-size="10.00"> </text>
</g>
<!-- Node2&#45;&gt;Node1 -->
<g id="edge2" class="edge"><title>Node2&#45;&gt;Node1</title>
<path fill="none" stroke="#404040" d="M44,-154.244C44,-142.571 44,-128.902 44,-115.427"/>
<polygon fill="none" stroke="#404040" points="44.0001,-115.169 40,-109.169 44,-103.169 48,-109.169 44.0001,-115.169"/>
<text text-anchor="middle" x="76" y="-126.5" font-family="Helvetica,sans-Serif" font-size="10.00"> &#45;$APIuriPrefix</text>
</g>
</g>
</svg>
