<?xml version="1.0" encoding="UTF-8" standalone="no"?>
<!DOCTYPE svg PUBLIC "-//W3C//DTD SVG 1.1//EN"
 "http://www.w3.org/Graphics/SVG/1.1/DTD/svg11.dtd">
<!-- Generated by graphviz version 2.26.3 (20100126.1600)
 -->
<!-- Title: HomeLoadTV Pages: 1 -->
<svg width="135pt" height="328pt"
 viewBox="0.00 0.00 135.00 328.00" xmlns="http://www.w3.org/2000/svg" xmlns:xlink="http://www.w3.org/1999/xlink">
<g id="graph1" class="graph" transform="scale(1 1) rotate(0) translate(4 324)">
<title>HomeLoadTV</title>
<!-- Node1 -->
<g id="node1" class="node"><title>Node1</title>
<polygon fill="#bfbfbf" stroke="black" points="0,-0.5 0,-167.5 94,-167.5 94,-0.5 0,-0.5"/>
<text text-anchor="middle" x="47" y="-154.5" font-family="Helvetica,sans-Serif" font-size="10.00">HomeLoadTV</text>
<polyline fill="none" stroke="black" points="0,-146.5 94,-146.5 "/>
<text text-anchor="start" x="8" y="-133.5" font-family="Helvetica,sans-Serif" font-size="10.00">&#45; $fd</text>
<text text-anchor="start" x="8" y="-120.5" font-family="Helvetica,sans-Serif" font-size="10.00">&#45; $email</text>
<text text-anchor="start" x="8" y="-107.5" font-family="Helvetica,sans-Serif" font-size="10.00">&#45; $password</text>
<text text-anchor="start" x="8" y="-94.5" font-family="Helvetica,sans-Serif" font-size="10.00">&#45; $curl</text>
<polyline fill="none" stroke="black" points="0,-86.5 94,-86.5 "/>
<text text-anchor="start" x="8" y="-73.5" font-family="Helvetica,sans-Serif" font-size="10.00">+ __construct()</text>
<text text-anchor="start" x="8" y="-60.5" font-family="Helvetica,sans-Serif" font-size="10.00">+ __destruct()</text>
<text text-anchor="start" x="8" y="-47.5" font-family="Helvetica,sans-Serif" font-size="10.00">+ getLinks()</text>
<text text-anchor="start" x="8" y="-34.5" font-family="Helvetica,sans-Serif" font-size="10.00">+ setProcessing()</text>
<text text-anchor="start" x="8" y="-21.5" font-family="Helvetica,sans-Serif" font-size="10.00">+ setState()</text>
<text text-anchor="start" x="8" y="-8.5" font-family="Helvetica,sans-Serif" font-size="10.00">+ download()</text>
</g>
<!-- Node2 -->
<g id="node2" class="node"><title>Node2</title>
<polygon fill="none" stroke="#bfbfbf" points="26.5,-256.5 26.5,-319.5 67.5,-319.5 67.5,-256.5 26.5,-256.5"/>
<text text-anchor="middle" x="47" y="-306.5" font-family="Helvetica,sans-Serif" font-size="10.00">static</text>
<polyline fill="none" stroke="#bfbfbf" points="26.5,-298.5 67.5,-298.5 "/>
<text text-anchor="middle" x="47" y="-285.5" font-family="Helvetica,sans-Serif" font-size="10.00"> </text>
<polyline fill="none" stroke="#bfbfbf" points="26.5,-277.5 67.5,-277.5 "/>
<text text-anchor="middle" x="47" y="-264.5" font-family="Helvetica,sans-Serif" font-size="10.00"> </text>
</g>
<!-- Node2&#45;&gt;Node1 -->
<g id="edge2" class="edge"><title>Node2&#45;&gt;Node1</title>
<path fill="none" stroke="#404040" d="M47,-256.125C47,-235.431 47,-207.272 47,-179.726"/>
<polygon fill="none" stroke="#404040" points="47.0001,-179.563 43,-173.563 47,-167.563 51,-173.563 47.0001,-179.563"/>
<text text-anchor="middle" x="87" y="-229" font-family="Helvetica,sans-Serif" font-size="10.00"> &#45;$ThumbUriSuffix</text>
<text text-anchor="middle" x="87" y="-216" font-family="Helvetica,sans-Serif" font-size="10.00">&#45;$lockfile</text>
<text text-anchor="middle" x="87" y="-203" font-family="Helvetica,sans-Serif" font-size="10.00">&#45;$APIuriPrefix</text>
<text text-anchor="middle" x="87" y="-190" font-family="Helvetica,sans-Serif" font-size="10.00">&#45;$ThumbUriPrefix</text>
</g>
</g>
</svg>
