<?xml version="1.0" encoding="UTF-8" standalone="no"?>
<!DOCTYPE svg PUBLIC "-//W3C//DTD SVG 1.1//EN"
 "http://www.w3.org/Graphics/SVG/1.1/DTD/svg11.dtd">
<!-- Generated by graphviz version 2.26.3 (20100126.1600)
 -->
<!-- Title: G Pages: 1 -->
<svg width="133pt" height="380pt"
 viewBox="0.00 0.00 133.00 380.00" xmlns="http://www.w3.org/2000/svg" xmlns:xlink="http://www.w3.org/1999/xlink">
<g id="graph1" class="graph" transform="scale(1 1) rotate(0) translate(4 376)">
<title>G</title>
<!-- Node1 -->
<g id="node1" class="node"><title>Node1</title>
<polygon fill="#bfbfbf" stroke="black" points="0,-0.5 0,-219.5 96,-219.5 96,-0.5 0,-0.5"/>
<text text-anchor="middle" x="48" y="-206.5" font-family="Helvetica,sans-Serif" font-size="10.00">HomeLoadTV</text>
<polyline fill="none" stroke="black" points="0,-198.5 96,-198.5 "/>
<text text-anchor="start" x="8" y="-185.5" font-family="Helvetica,sans-Serif" font-size="10.00">&#45; $fd</text>
<text text-anchor="start" x="8" y="-172.5" font-family="Helvetica,sans-Serif" font-size="10.00">&#45; $email</text>
<text text-anchor="start" x="8" y="-159.5" font-family="Helvetica,sans-Serif" font-size="10.00">&#45; $password</text>
<text text-anchor="start" x="8" y="-146.5" font-family="Helvetica,sans-Serif" font-size="10.00">&#45; $curl</text>
<text text-anchor="start" x="8" y="-133.5" font-family="Helvetica,sans-Serif" font-size="10.00">&#45; $lockfile</text>
<text text-anchor="start" x="8" y="-120.5" font-family="Helvetica,sans-Serif" font-size="10.00">&#45; $APIuriPrefix</text>
<text text-anchor="start" x="8" y="-107.5" font-family="Helvetica,sans-Serif" font-size="10.00">&#45; $ThumbUriPrefix</text>
<text text-anchor="start" x="8" y="-94.5" font-family="Helvetica,sans-Serif" font-size="10.00">&#45; $ThumbUriSuffix</text>
<polyline fill="none" stroke="black" points="0,-86.5 96,-86.5 "/>
<text text-anchor="start" x="8" y="-73.5" font-family="Helvetica,sans-Serif" font-size="10.00">+ __construct()</text>
<text text-anchor="start" x="8" y="-60.5" font-family="Helvetica,sans-Serif" font-size="10.00">+ __destruct()</text>
<text text-anchor="start" x="8" y="-47.5" font-family="Helvetica,sans-Serif" font-size="10.00">+ getLinks()</text>
<text text-anchor="start" x="8" y="-34.5" font-family="Helvetica,sans-Serif" font-size="10.00">+ setProcessing()</text>
<text text-anchor="start" x="8" y="-21.5" font-family="Helvetica,sans-Serif" font-size="10.00">+ setState()</text>
<text text-anchor="start" x="8" y="-8.5" font-family="Helvetica,sans-Serif" font-size="10.00">+ download()</text>
</g>
<!-- Node2 -->
<g id="node2" class="node"><title>Node2</title>
<polygon fill="none" stroke="#bfbfbf" points="27.5,-308.5 27.5,-371.5 68.5,-371.5 68.5,-308.5 27.5,-308.5"/>
<text text-anchor="middle" x="48" y="-358.5" font-family="Helvetica,sans-Serif" font-size="10.00">static</text>
<polyline fill="none" stroke="#bfbfbf" points="27.5,-350.5 68.5,-350.5 "/>
<text text-anchor="middle" x="48" y="-337.5" font-family="Helvetica,sans-Serif" font-size="10.00"> </text>
<polyline fill="none" stroke="#bfbfbf" points="27.5,-329.5 68.5,-329.5 "/>
<text text-anchor="middle" x="48" y="-316.5" font-family="Helvetica,sans-Serif" font-size="10.00"> </text>
</g>
<!-- Node2&#45;&gt;Node1 -->
<g id="edge2" class="edge"><title>Node2&#45;&gt;Node1</title>
<path fill="none" stroke="#404040" d="M48,-308.019C48,-287.715 48,-260.017 48,-231.772"/>
<polygon fill="none" stroke="#404040" points="48.0001,-231.653 44,-225.653 48,-219.653 52,-225.653 48.0001,-231.653"/>
<text text-anchor="middle" x="86.5" y="-281" font-family="Helvetica,sans-Serif" font-size="10.00"> $ThumbUriPrefix</text>
<text text-anchor="middle" x="86.5" y="-268" font-family="Helvetica,sans-Serif" font-size="10.00">$APIuriPrefix</text>
<text text-anchor="middle" x="86.5" y="-255" font-family="Helvetica,sans-Serif" font-size="10.00">$lockfile</text>
<text text-anchor="middle" x="86.5" y="-242" font-family="Helvetica,sans-Serif" font-size="10.00">$ThumbUriSuffix</text>
</g>
</g>
</svg>
